<?xml version="1.0" encoding="utf-8"?>
<!-- Generator: Adobe Illustrator 28.1.0, SVG Export Plug-In . SVG Version: 6.00 Build 0)  -->
<svg version="1.1" id="Capa_1" xmlns="http://www.w3.org/2000/svg" xmlns:xlink="http://www.w3.org/1999/xlink" x="0px" y="0px"
	 viewBox="0 0 350 210" style="enable-background:new 0 0 350 210;" xml:space="preserve">
<style type="text/css">
	.st0{fill:#FFFFFF;}
</style>
<path d="M38.5,0v160.3c0,8.8,7.2,15.9,16,15.9h241.9c8.8,0,16-7.2,16-15.9V0H38.5z"/>
<g>
	<path class="st0" d="M111.7,147.6c0,0.8-1.2,3.3-4,6.2c-2.5,2.6-6.2,3.9-10.9,3.9h-4.1c-9.5,0-15.7-6-15.7-14.9v-24.9
		c0-8.9,6.2-14.9,15.7-14.9h4.1c3.8,0,6.9,0.8,9.5,2.8c3.4,2.4,5.4,6.2,5.4,7.2c0,0.3-0.2,0.5-0.5,0.7l-7.3,3.6
		c-0.2,0.1-0.3,0.1-0.4,0.1c-0.5,0-0.7-0.5-1.2-1.4c-1.4-2.6-3-4-5.5-4h-4.1c-3.4,0-6.1,2.7-6.1,6.1v24.9c0,3.4,2.7,6.1,6.1,6.1h4.1
		c2.4,0,4-1.3,5.4-4c0.5-1,0.8-1.6,1.3-1.6c0.2,0,0.3,0,0.4,0.1l7.3,3.6C111.6,147.1,111.7,147.3,111.7,147.6z"/>
	<path class="st0" d="M151.9,156.2c0,0.5-0.3,0.8-0.9,0.8h-8.5c-0.5,0-0.8-0.2-0.8-0.6l-2.5-8.8c-0.1-0.4-0.3-0.5-0.8-0.5h-12
		c-0.5,0-0.8,0.1-0.8,0.5l-2.5,8.8c-0.1,0.4-0.4,0.6-0.8,0.6h-8.4c-0.6,0-0.9-0.3-0.9-0.8c0-0.1,0.1-0.2,0.1-0.3l15.7-51.4
		c0.2-0.4,0.3-0.6,0.8-0.6h6.1c0.4,0,0.7,0.2,0.8,0.6l15.7,51.4C151.8,156,151.9,156.1,151.9,156.2z M133.4,125.9
		c-0.1-0.5-0.4-2-0.9-4.6h-0.3c-0.6,2.6-0.8,4.1-1,4.6l-2.9,11.1c0,0.1-0.1,0.3-0.1,0.3c0,0.5,0.3,0.8,0.9,0.8h6.2
		c0.6,0,0.9-0.3,0.9-0.8c0-0.1-0.1-0.3-0.1-0.3L133.4,125.9z"/>
	<path class="st0" d="M193.3,156.2c0,0.4-0.3,0.7-0.8,0.7h-8.7c-0.3,0-0.5-0.2-0.8-0.6l-7.4-21.4l-0.7-0.5h-7.5
		c-0.6,0-0.8,0.3-0.8,0.8v20.8c0,0.6-0.3,0.8-0.8,0.8h-8c-0.6,0-0.8-0.3-0.8-0.8v-51.4c0-0.6,0.3-0.8,0.8-0.8h19
		c9.6,0,15.7,6.1,15.7,15.7v0.8c0,4-1.9,7.2-3.7,9c-1.4,1.5-3.5,2.4-3.5,3.2v0.1l8,23.2C193.3,156,193.3,156.2,193.3,156.2z
		 M182.8,118.7c0-3.3-2.8-6.1-6.1-6.1h-9.3c-0.6,0-0.8,0.3-0.8,0.8v11.2c0,0.6,0.3,0.8,0.8,0.8h9.3c3.3,0,6.1-2.7,6.1-6.1V118.7z"/>
	<path class="st0" d="M239.6,156.2c-0.1,0.4-0.4,0.7-0.8,0.7h-6.2c-0.5,0-0.8-0.2-0.8-0.6l-8.5-33.4l-8.4,33.4
		c-0.1,0.4-0.3,0.6-0.8,0.6h-6.2c-0.4,0-0.8-0.3-0.8-0.7l-11.1-51.4c0-0.1-0.1-0.3-0.1-0.3c0-0.4,0.3-0.7,0.9-0.7h8.6
		c0.4,0,0.8,0.3,0.8,0.7l6.2,34.3l8-34.5c0.1-0.4,0.3-0.6,0.8-0.6h4.2c0.5,0,0.8,0.2,0.8,0.6l8,34.5l6.2-34.3
		c0.1-0.4,0.4-0.7,0.8-0.7h8.6c0.6,0,0.9,0.3,0.9,0.7c0,0.1-0.1,0.3-0.1,0.3L239.6,156.2z"/>
	<path class="st0" d="M275.3,157.8h-4.1c-9.5,0-15.7-6-15.7-14.9v-24.9c0-8.9,6.2-14.9,15.7-14.9h4.1c9.4,0,15.7,6,15.7,14.9v24.9
		C291,151.8,284.7,157.8,275.3,157.8z M281.3,117.9c0-3.5-2.6-6.1-6-6.1h-4.1c-3.4,0-6.1,2.7-6.1,6.1v24.9c0,3.4,2.7,6.1,6.1,6.1
		h4.1c3.4,0,6-2.6,6-6.1V117.9z"/>
	<path class="st0" d="M298.8,156.9h-0.1c-3.3,0-5.5-2.1-5.5-5.2v-0.6c0-3,2.1-5.2,5.5-5.2h0.1c3.3,0,5.5,2.1,5.5,5.2v0.6
		C304.2,154.8,302.1,156.9,298.8,156.9z M303.3,151.1c0-2.5-1.8-4.3-4.6-4.3h-0.1c-2.8,0-4.6,1.7-4.6,4.3v0.6c0,2.5,1.8,4.3,4.6,4.3
		h0.1c2.8,0,4.6-1.7,4.6-4.3V151.1z M300.2,151.9c-0.1,0.1-0.2,0.2-0.1,0.4l0.8,1.5c0.1,0.2,0,0.4-0.3,0.4h-0.5
		c-0.1,0-0.2-0.1-0.3-0.2l-0.7-1.6c-0.1-0.1-0.2-0.2-0.3-0.2h-0.8c-0.2,0-0.3,0.1-0.3,0.3v1.4c0,0.2-0.1,0.3-0.3,0.3h-0.3
		c-0.2,0-0.3-0.1-0.3-0.3v-5.1c0-0.2,0.1-0.3,0.3-0.3h1.9c1.2,0,1.9,0.8,1.9,1.9v0.1C300.9,151,300.6,151.6,300.2,151.9z M300,150.3
		c0-0.5-0.4-1-0.9-1h-1c-0.2,0-0.3,0.1-0.3,0.3v1.4c0,0.2,0.1,0.3,0.3,0.3h1C299.6,151.4,300,150.9,300,150.3L300,150.3z"/>
</g>
</svg>
